<?xml version="1.0" encoding="utf-8"?>
<!-- Generator: Adobe Illustrator 19.1.0, SVG Export Plug-In . SVG Version: 6.00 Build 0)  -->
<svg version="1.1" id="Layer_1" xmlns="http://www.w3.org/2000/svg" xmlns:xlink="http://www.w3.org/1999/xlink" x="0px" y="0px"
	 viewBox="-357.7 256.3 20 36" style="enable-background:new -357.7 256.3 20 36;" xml:space="preserve">
<style type="text/css">
	.st0{fill:#8ABC00;}
</style>
<g>
	<path class="st0" d="M-338.3,269.3c0-7-6.3-12.6-9.4-12.6s-9.4,5.6-9.4,12.6c0,3.4,1,6.4,2.6,8.7c0.5,1.1,1.4,2.3,2.3,3.6
		c1,1.4,2,2.9,2.6,4.3c-0.5,0.2-1,0.6-1.2,1.2c0.5,0.1,1.1,0.2,1.6,0.3c1.6,0.2,3,0.1,3.8-0.2c-0.5,0.4-2,0.6-3.8,0.5
		c-0.6,0-1.2-0.1-1.7-0.2c0,0.1,0,0.2,0,0.3v2.6c0,1.1,0.9,1.5,2.1,1.5h2.9c1.1,0,2.1-0.3,2.1-1.5v-2.6c0-1-0.7-1.8-1.6-2
		c0.4-0.8,0.8-1.7,1.2-2.5l0.4-0.8l0.3-0.6c0.2-0.5,0.6-1.2,1-2h0C-340,277.8-338.3,273.8-338.3,269.3z M-344.1,281.7l-0.3,0.6
		l-0.4,0.8c-0.4,0.9-0.9,1.8-1.3,2.7h-1.3v-3.8h-0.6v3.8h-0.9c-0.1,0-0.1,0-0.2,0c-0.6-1.5-1.7-3-2.7-4.5c-0.3-0.4-0.5-0.8-0.8-1.2
		c1.4,1.2,3.1,1.8,4.9,1.8c1.4,0,2.8-0.4,4-1.2C-343.8,281-343.9,281.4-344.1,281.7z M-344.2,280.7c0,0,2.9-3.2,3.8-7.7
		c-1.1,1.3-3,2.2-5.2,2.2c-3.4,0-6.2-2.2-6.2-4.9c0-2.7,2.8-4.9,6.2-4.9c2.1,0,4,0.8,5.1,2.1c-1.8-7.4-9.8-9.3-9.8-9.3
		s0.5-0.6,1.6-1c0.9-0.3,1.4-0.2,2,0c0.7,0.2,7.8,4.2,7.8,11.7C-339,276.7-344.2,280.7-344.2,280.7z"/>
	<g>
		<path class="st0" d="M-343.4,269.1c-0.6,0-1-0.3-1.7-0.3c-1.3,0-1.8,0.7-1.8,1.5c0,0.7,0.7,1.5,1.8,1.5c0.6,0,1.4-0.3,1.6-0.3
			c0.5,0,0.9,0.3,0.9,0.6c0,0.8-1.9,1-2.7,1c-2.4,0-3.9-1.3-3.9-2.8c0-1.5,1.6-2.9,3.9-2.9c0.9,0,2.7,0.2,2.7,0.9
			C-342.5,268.7-342.9,269.1-343.4,269.1z"/>
	</g>
</g>
</svg>
